<svg width="262" height="78" viewBox="0 0 262 78" fill="none" xmlns="http://www.w3.org/2000/svg">
<rect width="262" height="78" rx="10" fill="white"/>
<path d="M19.0568 26V17.2727H24.3239V18.2102H20.1136V21.1591H24.0511V22.0966H20.1136V25.0625H24.392V26H19.0568ZM27.098 22.0625V26H26.0923V19.4545H27.0639V20.4773H27.1491C27.3026 20.1449 27.5355 19.8778 27.848 19.6761C28.1605 19.4716 28.5639 19.3693 29.0582 19.3693C29.5014 19.3693 29.8892 19.4602 30.2216 19.642C30.554 19.821 30.8125 20.0938 30.9972 20.4602C31.1818 20.8239 31.2741 21.2841 31.2741 21.8409V26H30.2685V21.9091C30.2685 21.3949 30.1349 20.9943 29.8679 20.7074C29.6009 20.4176 29.2344 20.2727 28.7685 20.2727C28.4474 20.2727 28.1605 20.3423 27.9077 20.4815C27.6577 20.6207 27.4602 20.8239 27.3153 21.0909C27.1705 21.358 27.098 21.6818 27.098 22.0625ZM35.9585 19.4545V20.3068H32.5664V19.4545H35.9585ZM33.555 17.8864H34.5607V24.125C34.5607 24.4091 34.6019 24.6222 34.6843 24.7642C34.7695 24.9034 34.8775 24.9972 35.0082 25.0455C35.1417 25.0909 35.2823 25.1136 35.43 25.1136C35.5408 25.1136 35.6317 25.108 35.7028 25.0966C35.7738 25.0824 35.8306 25.071 35.8732 25.0625L36.0778 25.9659C36.0096 25.9915 35.9144 26.017 35.7923 26.0426C35.6701 26.071 35.5153 26.0852 35.3278 26.0852C35.0437 26.0852 34.7653 26.0241 34.4925 25.902C34.2227 25.7798 33.9982 25.5938 33.8192 25.3438C33.6431 25.0938 33.555 24.7784 33.555 24.3977V17.8864ZM40.1452 26.1364C39.5146 26.1364 38.9705 25.9972 38.5131 25.7188C38.0586 25.4375 37.7077 25.0455 37.4606 24.5426C37.2163 24.0369 37.0941 23.4489 37.0941 22.7784C37.0941 22.108 37.2163 21.517 37.4606 21.0057C37.7077 20.4915 38.0515 20.0909 38.4918 19.804C38.935 19.5142 39.4521 19.3693 40.043 19.3693C40.3839 19.3693 40.7205 19.4261 41.0529 19.5398C41.3853 19.6534 41.6879 19.8381 41.9606 20.0938C42.2333 20.3466 42.4506 20.6818 42.6126 21.0994C42.7745 21.517 42.8555 22.0312 42.8555 22.642V23.0682H37.81V22.1989H41.8327C41.8327 21.8295 41.7589 21.5 41.6112 21.2102C41.4663 20.9205 41.2589 20.6918 40.989 20.5241C40.7219 20.3565 40.4066 20.2727 40.043 20.2727C39.6424 20.2727 39.2958 20.3722 39.0032 20.571C38.7134 20.767 38.4904 21.0227 38.3342 21.3381C38.1779 21.6534 38.0998 21.9915 38.0998 22.3523V22.9318C38.0998 23.4261 38.185 23.8452 38.3555 24.1889C38.5288 24.5298 38.7688 24.7898 39.0756 24.9688C39.3825 25.1449 39.739 25.233 40.1452 25.233C40.4094 25.233 40.6481 25.196 40.8612 25.1222C41.0771 25.0455 41.2631 24.9318 41.4194 24.7812C41.5756 24.6278 41.6964 24.4375 41.7816 24.2102L42.7532 24.483C42.6509 24.8125 42.479 25.1023 42.2376 25.3523C41.9961 25.5994 41.6978 25.7926 41.3427 25.9318C40.9876 26.0682 40.5884 26.1364 40.1452 26.1364ZM44.3853 26V19.4545H45.3569V20.4432H45.4251C45.5444 20.1193 45.7603 19.8565 46.0728 19.6548C46.3853 19.4531 46.7376 19.3523 47.1296 19.3523C47.2035 19.3523 47.2958 19.3537 47.4066 19.3565C47.5174 19.3594 47.6012 19.3636 47.658 19.3693V20.392C47.6239 20.3835 47.5458 20.3707 47.4237 20.3537C47.3043 20.3338 47.1779 20.3239 47.0444 20.3239C46.7262 20.3239 46.4421 20.3906 46.1921 20.5241C45.945 20.6548 45.7489 20.8366 45.604 21.0696C45.462 21.2997 45.391 21.5625 45.391 21.858V26H44.3853ZM54.1513 26.1534C53.7365 26.1534 53.3601 26.0753 53.022 25.919C52.6839 25.7599 52.4155 25.5312 52.2166 25.233C52.0178 24.9318 51.9183 24.5682 51.9183 24.142C51.9183 23.767 51.9922 23.4631 52.1399 23.2301C52.2876 22.9943 52.4851 22.8097 52.7322 22.6761C52.9794 22.5426 53.2521 22.4432 53.5504 22.3778C53.8516 22.3097 54.1541 22.2557 54.4581 22.2159C54.8558 22.1648 55.1783 22.1264 55.4254 22.1009C55.6754 22.0724 55.8572 22.0256 55.9709 21.9602C56.0874 21.8949 56.1456 21.7812 56.1456 21.6193V21.5852C56.1456 21.1648 56.0305 20.8381 55.8004 20.6051C55.5732 20.3722 55.228 20.2557 54.7649 20.2557C54.2848 20.2557 53.9084 20.3608 53.6357 20.571C53.3629 20.7812 53.1712 21.0057 53.0604 21.2443L52.1058 20.9034C52.2763 20.5057 52.5036 20.196 52.7876 19.9744C53.0746 19.75 53.3871 19.5937 53.7251 19.5057C54.0661 19.4148 54.4013 19.3693 54.7308 19.3693C54.9411 19.3693 55.1825 19.3949 55.4553 19.446C55.7308 19.4943 55.9964 19.5952 56.2521 19.7486C56.5107 19.902 56.7251 20.1335 56.8956 20.4432C57.0661 20.7528 57.1513 21.1676 57.1513 21.6875V26H56.1456V25.1136H56.0945C56.0263 25.2557 55.9126 25.4077 55.7536 25.5696C55.5945 25.7315 55.3828 25.8693 55.1186 25.983C54.8544 26.0966 54.532 26.1534 54.1513 26.1534ZM54.3047 25.25C54.7024 25.25 55.0376 25.1719 55.3104 25.0156C55.5859 24.8594 55.7933 24.6577 55.9325 24.4105C56.0746 24.1634 56.1456 23.9034 56.1456 23.6307V22.7102C56.103 22.7614 56.0092 22.8082 55.8643 22.8509C55.7223 22.8906 55.5575 22.9261 55.37 22.9574C55.1854 22.9858 55.005 23.0114 54.8288 23.0341C54.6555 23.054 54.5149 23.071 54.407 23.0852C54.1456 23.1193 53.9013 23.1747 53.674 23.2514C53.4496 23.3253 53.2678 23.4375 53.1286 23.5881C52.9922 23.7358 52.924 23.9375 52.924 24.1932C52.924 24.5426 53.0533 24.8068 53.3118 24.9858C53.5732 25.1619 53.9041 25.25 54.3047 25.25ZM58.9869 26V19.4545H59.9585V20.4773H60.0437C60.18 20.1278 60.4002 19.8565 60.7042 19.6634C61.0082 19.4673 61.3732 19.3693 61.7994 19.3693C62.2312 19.3693 62.5906 19.4673 62.8775 19.6634C63.1673 19.8565 63.3931 20.1278 63.555 20.4773H63.6232C63.7908 20.1392 64.0423 19.8707 64.3775 19.6719C64.7127 19.4702 65.1147 19.3693 65.5835 19.3693C66.1687 19.3693 66.6474 19.5526 67.0195 19.919C67.3917 20.2827 67.5778 20.8494 67.5778 21.6193V26H66.5721V21.6193C66.5721 21.1364 66.44 20.7912 66.1758 20.5838C65.9116 20.3764 65.6005 20.2727 65.2425 20.2727C64.7823 20.2727 64.4258 20.4119 64.1729 20.6903C63.9201 20.9659 63.7937 21.3153 63.7937 21.7386V26H62.771V21.517C62.771 21.1449 62.6502 20.8452 62.4087 20.6179C62.1673 20.3878 61.8562 20.2727 61.4755 20.2727C61.2141 20.2727 60.9698 20.3423 60.7425 20.4815C60.5181 20.6207 60.3363 20.8139 60.1971 21.0611C60.0607 21.3054 59.9925 21.5881 59.9925 21.9091V26H58.9869ZM72.0756 26.1364C71.4847 26.1364 70.9663 25.9957 70.5202 25.7145C70.0771 25.4332 69.7305 25.0398 69.4805 24.5341C69.2333 24.0284 69.1097 23.4375 69.1097 22.7614C69.1097 22.0795 69.2333 21.4844 69.4805 20.9759C69.7305 20.4673 70.0771 20.0724 70.5202 19.7912C70.9663 19.5099 71.4847 19.3693 72.0756 19.3693C72.6665 19.3693 73.1836 19.5099 73.6268 19.7912C74.0728 20.0724 74.4194 20.4673 74.6665 20.9759C74.9165 21.4844 75.0415 22.0795 75.0415 22.7614C75.0415 23.4375 74.9165 24.0284 74.6665 24.5341C74.4194 25.0398 74.0728 25.4332 73.6268 25.7145C73.1836 25.9957 72.6665 26.1364 72.0756 26.1364ZM72.0756 25.233C72.5245 25.233 72.8938 25.1179 73.1836 24.8878C73.4734 24.6577 73.6879 24.3551 73.8271 23.9801C73.9663 23.6051 74.0359 23.1989 74.0359 22.7614C74.0359 22.3239 73.9663 21.9162 73.8271 21.5384C73.6879 21.1605 73.4734 20.8551 73.1836 20.6222C72.8938 20.3892 72.5245 20.2727 72.0756 20.2727C71.6268 20.2727 71.2575 20.3892 70.9677 20.6222C70.6779 20.8551 70.4634 21.1605 70.3242 21.5384C70.185 21.9162 70.1154 22.3239 70.1154 22.7614C70.1154 23.1989 70.185 23.6051 70.3242 23.9801C70.4634 24.3551 70.6779 24.6577 70.9677 24.8878C71.2575 25.1179 71.6268 25.233 72.0756 25.233ZM80.7017 23.3239V19.4545H81.7074V26H80.7017V24.892H80.6335C80.4801 25.2244 80.2415 25.5071 79.9176 25.7401C79.5938 25.9702 79.1847 26.0852 78.6903 26.0852C78.2812 26.0852 77.9176 25.9957 77.5994 25.8168C77.2813 25.6349 77.0313 25.3622 76.8494 24.9986C76.6676 24.6321 76.5767 24.1705 76.5767 23.6136V19.4545H77.5824V23.5455C77.5824 24.0227 77.7159 24.4034 77.983 24.6875C78.2528 24.9716 78.5966 25.1136 79.0142 25.1136C79.2642 25.1136 79.5185 25.0497 79.777 24.9219C80.0384 24.794 80.2571 24.598 80.4332 24.3338C80.6122 24.0696 80.7017 23.733 80.7017 23.3239ZM84.555 22.0625V26H83.5494V19.4545H84.521V20.4773H84.6062C84.7596 20.1449 84.9925 19.8778 85.305 19.6761C85.6175 19.4716 86.021 19.3693 86.5153 19.3693C86.9585 19.3693 87.3462 19.4602 87.6786 19.642C88.011 19.821 88.2695 20.0938 88.4542 20.4602C88.6388 20.8239 88.7312 21.2841 88.7312 21.8409V26H87.7255V21.9091C87.7255 21.3949 87.592 20.9943 87.3249 20.7074C87.0579 20.4176 86.6914 20.2727 86.2255 20.2727C85.9045 20.2727 85.6175 20.3423 85.3647 20.4815C85.1147 20.6207 84.9173 20.8239 84.7724 21.0909C84.6275 21.358 84.555 21.6818 84.555 22.0625ZM93.4155 19.4545V20.3068H90.0234V19.4545H93.4155ZM91.0121 17.8864H92.0178V24.125C92.0178 24.4091 92.0589 24.6222 92.1413 24.7642C92.2266 24.9034 92.3345 24.9972 92.4652 25.0455C92.5987 25.0909 92.7393 25.1136 92.8871 25.1136C92.9979 25.1136 93.0888 25.108 93.1598 25.0966C93.2308 25.0824 93.2876 25.071 93.3303 25.0625L93.5348 25.9659C93.4666 25.9915 93.3714 26.017 93.2493 26.0426C93.1271 26.071 92.9723 26.0852 92.7848 26.0852C92.5007 26.0852 92.2223 26.0241 91.9496 25.902C91.6797 25.7798 91.4553 25.5938 91.2763 25.3438C91.1001 25.0938 91.0121 24.7784 91.0121 24.3977V17.8864Z" fill="#A9A7B6"/>
<path d="M22.7102 56.4545V41.9091H23.642V56.4545H22.7102ZM25.625 46.4205C25.5644 45.8826 25.3144 45.4659 24.875 45.1705C24.4356 44.8712 23.8826 44.7216 23.2159 44.7216C22.7386 44.7216 22.3258 44.7973 21.9773 44.9489C21.6288 45.0966 21.358 45.3011 21.1648 45.5625C20.9754 45.8201 20.8807 46.1136 20.8807 46.4432C20.8807 46.7197 20.9451 46.9583 21.0739 47.1591C21.2064 47.3598 21.3788 47.5284 21.5909 47.6648C21.8068 47.7973 22.0379 47.9091 22.2841 48C22.5303 48.0871 22.767 48.1591 22.9943 48.2159L24.1307 48.5114C24.5019 48.6023 24.8826 48.7254 25.2727 48.8807C25.6629 49.036 26.0246 49.2405 26.358 49.4943C26.6913 49.7481 26.9602 50.0625 27.1648 50.4375C27.3731 50.8125 27.4773 51.2614 27.4773 51.7841C27.4773 52.4432 27.3068 53.0284 26.9659 53.5398C26.6288 54.0511 26.1383 54.4545 25.4943 54.75C24.8542 55.0455 24.0795 55.1932 23.1705 55.1932C22.2992 55.1932 21.5455 55.0549 20.9091 54.7784C20.2727 54.5019 19.7746 54.1098 19.4148 53.6023C19.0549 53.0909 18.8561 52.4848 18.8182 51.7841H20.5795C20.6136 52.2045 20.75 52.5549 20.9886 52.8352C21.2311 53.1117 21.5398 53.3182 21.9148 53.4545C22.2936 53.5871 22.7083 53.6534 23.1591 53.6534C23.6553 53.6534 24.0966 53.5758 24.483 53.4205C24.8731 53.2614 25.1799 53.0417 25.4034 52.7614C25.6269 52.4773 25.7386 52.1458 25.7386 51.767C25.7386 51.4223 25.6402 51.1402 25.4432 50.9205C25.25 50.7008 24.9867 50.5189 24.6534 50.375C24.3239 50.2311 23.9508 50.1042 23.5341 49.9943L22.1591 49.6193C21.2273 49.3655 20.4886 48.9924 19.9432 48.5C19.4015 48.0076 19.1307 47.3561 19.1307 46.5455C19.1307 45.875 19.3125 45.2898 19.6761 44.7898C20.0398 44.2898 20.5322 43.9015 21.1534 43.625C21.7746 43.3447 22.4754 43.2045 23.2557 43.2045C24.0436 43.2045 24.7386 43.3428 25.3409 43.6193C25.947 43.8958 26.4242 44.2765 26.7727 44.7614C27.1212 45.2424 27.303 45.7955 27.3182 46.4205H25.625ZM29.1719 52.7273V51.3068L34.2003 43.3636H35.3196V45.4545H34.6094L31.0128 51.1477V51.2386H37.9048V52.7273H29.1719ZM34.6889 55V52.2955L34.7003 51.6477V43.3636H36.3651V55H34.6889ZM43.7259 55.1591C43.0137 55.1591 42.3736 55.0227 41.8054 54.75C41.241 54.4735 40.7902 54.0947 40.4531 53.6136C40.116 53.1326 39.9361 52.5833 39.9134 51.9659H41.6179C41.6596 52.4659 41.8812 52.8769 42.2827 53.1989C42.6842 53.5208 43.1652 53.6818 43.7259 53.6818C44.1728 53.6818 44.5687 53.5795 44.9134 53.375C45.2618 53.1667 45.5346 52.8807 45.7315 52.517C45.9323 52.1534 46.0327 51.7386 46.0327 51.2727C46.0327 50.7992 45.9304 50.3769 45.7259 50.0057C45.5213 49.6345 45.2391 49.3428 44.8793 49.1307C44.5232 48.9186 44.1141 48.8106 43.652 48.8068C43.2997 48.8068 42.9455 48.8674 42.5895 48.9886C42.2334 49.1098 41.9455 49.2689 41.7259 49.4659L40.1179 49.2273L40.7713 43.3636H47.169V44.8693H42.2315L41.8622 48.125H41.9304C42.1577 47.9053 42.4588 47.7216 42.8338 47.5739C43.2126 47.4261 43.6179 47.3523 44.0497 47.3523C44.758 47.3523 45.3887 47.5208 45.9418 47.858C46.4986 48.1951 46.9361 48.6553 47.2543 49.2386C47.5762 49.8182 47.7353 50.4848 47.7315 51.2386C47.7353 51.9924 47.5649 52.6648 47.2202 53.2557C46.8793 53.8466 46.4058 54.3125 45.7997 54.6534C45.1974 54.9905 44.5062 55.1591 43.7259 55.1591ZM53.858 55.1932C52.9602 55.1894 52.1932 54.9527 51.5568 54.483C50.9205 54.0133 50.4337 53.3295 50.0966 52.4318C49.7595 51.5341 49.5909 50.4527 49.5909 49.1875C49.5909 47.9261 49.7595 46.8485 50.0966 45.9545C50.4375 45.0606 50.9261 44.3788 51.5625 43.9091C52.2027 43.4394 52.9678 43.2045 53.858 43.2045C54.7481 43.2045 55.5114 43.4413 56.1477 43.9148C56.7841 44.3845 57.2708 45.0663 57.608 45.9602C57.9489 46.8504 58.1193 47.9261 58.1193 49.1875C58.1193 50.4564 57.9508 51.5398 57.6136 52.4375C57.2765 53.3314 56.7898 54.0152 56.1534 54.4886C55.517 54.9583 54.7519 55.1932 53.858 55.1932ZM53.858 53.6761C54.6458 53.6761 55.2614 53.2917 55.7045 52.5227C56.1515 51.7538 56.375 50.642 56.375 49.1875C56.375 48.2216 56.2727 47.4053 56.0682 46.7386C55.8674 46.0682 55.5777 45.5606 55.1989 45.2159C54.8239 44.8674 54.3769 44.6932 53.858 44.6932C53.0739 44.6932 52.4583 45.0795 52.0114 45.8523C51.5644 46.625 51.339 47.7367 51.3352 49.1875C51.3352 50.1572 51.4356 50.9773 51.6364 51.6477C51.8409 52.3144 52.1307 52.8201 52.5057 53.1648C52.8807 53.5057 53.3314 53.6761 53.858 53.6761ZM60.8551 55.108C60.5445 55.108 60.2775 54.9981 60.054 54.7784C59.8305 54.5549 59.7188 54.286 59.7188 53.9716C59.7188 53.661 59.8305 53.3958 60.054 53.1761C60.2775 52.9527 60.5445 52.8409 60.8551 52.8409C61.1657 52.8409 61.4328 52.9527 61.6562 53.1761C61.8797 53.3958 61.9915 53.661 61.9915 53.9716C61.9915 54.1799 61.9384 54.3712 61.8324 54.5455C61.7301 54.7159 61.5938 54.8523 61.4233 54.9545C61.2528 55.0568 61.0634 55.108 60.8551 55.108ZM65.3864 55.108C65.0758 55.108 64.8087 54.9981 64.5852 54.7784C64.3617 54.5549 64.25 54.286 64.25 53.9716C64.25 53.661 64.3617 53.3958 64.5852 53.1761C64.8087 52.9527 65.0758 52.8409 65.3864 52.8409C65.697 52.8409 65.964 52.9527 66.1875 53.1761C66.411 53.3958 66.5227 53.661 66.5227 53.9716C66.5227 54.1799 66.4697 54.3712 66.3636 54.5455C66.2614 54.7159 66.125 54.8523 65.9545 54.9545C65.7841 55.0568 65.5947 55.108 65.3864 55.108ZM72.4048 55.1932C71.5071 55.1894 70.7401 54.9527 70.1037 54.483C69.4673 54.0133 68.9806 53.3295 68.6435 52.4318C68.3063 51.5341 68.1378 50.4527 68.1378 49.1875C68.1378 47.9261 68.3063 46.8485 68.6435 45.9545C68.9844 45.0606 69.473 44.3788 70.1094 43.9091C70.7495 43.4394 71.5147 43.2045 72.4048 43.2045C73.295 43.2045 74.0582 43.4413 74.6946 43.9148C75.331 44.3845 75.8177 45.0663 76.1548 45.9602C76.4957 46.8504 76.6662 47.9261 76.6662 49.1875C76.6662 50.4564 76.4976 51.5398 76.1605 52.4375C75.8234 53.3314 75.3366 54.0152 74.7003 54.4886C74.0639 54.9583 73.2988 55.1932 72.4048 55.1932ZM72.4048 53.6761C73.1927 53.6761 73.8082 53.2917 74.2514 52.5227C74.6984 51.7538 74.9219 50.642 74.9219 49.1875C74.9219 48.2216 74.8196 47.4053 74.6151 46.7386C74.4143 46.0682 74.1245 45.5606 73.7457 45.2159C73.3707 44.8674 72.9238 44.6932 72.4048 44.6932C71.6207 44.6932 71.0052 45.0795 70.5582 45.8523C70.1113 46.625 69.8859 47.7367 69.8821 49.1875C69.8821 50.1572 69.9825 50.9773 70.1832 51.6477C70.3878 52.3144 70.6776 52.8201 71.0526 53.1648C71.4276 53.5057 71.8783 53.6761 72.4048 53.6761ZM82.733 55.1932C81.8352 55.1894 81.0682 54.9527 80.4318 54.483C79.7955 54.0133 79.3087 53.3295 78.9716 52.4318C78.6345 51.5341 78.4659 50.4527 78.4659 49.1875C78.4659 47.9261 78.6345 46.8485 78.9716 45.9545C79.3125 45.0606 79.8011 44.3788 80.4375 43.9091C81.0777 43.4394 81.8428 43.2045 82.733 43.2045C83.6231 43.2045 84.3864 43.4413 85.0227 43.9148C85.6591 44.3845 86.1458 45.0663 86.483 45.9602C86.8239 46.8504 86.9943 47.9261 86.9943 49.1875C86.9943 50.4564 86.8258 51.5398 86.4886 52.4375C86.1515 53.3314 85.6648 54.0152 85.0284 54.4886C84.392 54.9583 83.6269 55.1932 82.733 55.1932ZM82.733 53.6761C83.5208 53.6761 84.1364 53.2917 84.5795 52.5227C85.0265 51.7538 85.25 50.642 85.25 49.1875C85.25 48.2216 85.1477 47.4053 84.9432 46.7386C84.7424 46.0682 84.4527 45.5606 84.0739 45.2159C83.6989 44.8674 83.2519 44.6932 82.733 44.6932C81.9489 44.6932 81.3333 45.0795 80.8864 45.8523C80.4394 46.625 80.214 47.7367 80.2102 49.1875C80.2102 50.1572 80.3106 50.9773 80.5114 51.6477C80.7159 52.3144 81.0057 52.8201 81.3807 53.1648C81.7557 53.5057 82.2064 53.6761 82.733 53.6761Z" fill="black"/>
<rect x="181" y="23" width="64" height="28" rx="14" fill="#52BD94"/>
<path d="M203.195 34.0291C203.146 33.5921 202.943 33.2536 202.586 33.0135C202.229 32.7704 201.78 32.6488 201.238 32.6488C200.85 32.6488 200.515 32.7103 200.232 32.8335C199.948 32.9535 199.728 33.1197 199.571 33.332C199.417 33.5413 199.341 33.7798 199.341 34.0476C199.341 34.2723 199.393 34.4661 199.498 34.6293C199.605 34.7924 199.745 34.9293 199.918 35.0401C200.093 35.1478 200.281 35.2386 200.481 35.3125C200.681 35.3833 200.873 35.4418 201.058 35.4879L201.981 35.728C202.283 35.8018 202.592 35.9019 202.909 36.0281C203.226 36.1542 203.52 36.3204 203.791 36.5266C204.062 36.7328 204.28 36.9883 204.446 37.293C204.616 37.5977 204.7 37.9624 204.7 38.3871C204.7 38.9226 204.562 39.3981 204.285 39.8136C204.011 40.229 203.612 40.5568 203.089 40.7969C202.569 41.0369 201.94 41.157 201.201 41.157C200.493 41.157 199.881 41.0446 199.364 40.82C198.847 40.5953 198.442 40.2768 198.15 39.8643C197.857 39.4489 197.696 38.9564 197.665 38.3871H199.096C199.124 38.7287 199.234 39.0134 199.428 39.2411C199.625 39.4658 199.876 39.6335 200.181 39.7443C200.489 39.852 200.826 39.9059 201.192 39.9059C201.595 39.9059 201.953 39.8428 202.267 39.7166C202.584 39.5874 202.834 39.4089 203.015 39.1811C203.197 38.9503 203.288 38.681 203.288 38.3732C203.288 38.0932 203.208 37.8639 203.048 37.6854C202.891 37.5069 202.677 37.3591 202.406 37.2422C202.138 37.1252 201.835 37.0221 201.496 36.9329L200.379 36.6282C199.622 36.422 199.022 36.1188 198.579 35.7188C198.139 35.3187 197.919 34.7893 197.919 34.1307C197.919 33.5859 198.066 33.1104 198.362 32.7042C198.657 32.2979 199.057 31.9825 199.562 31.7578C200.067 31.5301 200.636 31.4162 201.27 31.4162C201.91 31.4162 202.475 31.5285 202.964 31.7532C203.457 31.9779 203.845 32.2872 204.128 32.6811C204.411 33.072 204.559 33.5213 204.571 34.0291H203.195ZM209.35 41.1431C208.652 41.1431 208.05 40.9938 207.545 40.6953C207.044 40.3937 206.656 39.9705 206.382 39.4258C206.111 38.878 205.976 38.2363 205.976 37.5007C205.976 36.7744 206.111 36.1342 206.382 35.5803C206.656 35.0263 207.037 34.5939 207.527 34.283C208.019 33.9722 208.595 33.8168 209.253 33.8168C209.653 33.8168 210.041 33.8829 210.417 34.0153C210.792 34.1476 211.129 34.3554 211.428 34.6385C211.726 34.9216 211.962 35.2894 212.134 35.7418C212.306 36.1912 212.392 36.7375 212.392 37.3807V37.87H206.756V36.8359H211.04C211.04 36.4728 210.966 36.1512 210.818 35.8711C210.671 35.5879 210.463 35.3648 210.195 35.2017C209.93 35.0386 209.62 34.957 209.263 34.957C208.875 34.957 208.536 35.0524 208.247 35.2433C207.961 35.431 207.739 35.6772 207.582 35.9819C207.428 36.2835 207.351 36.6113 207.351 36.9652V37.7731C207.351 38.247 207.434 38.6502 207.601 38.9826C207.77 39.315 208.005 39.5689 208.307 39.7443C208.609 39.9167 208.961 40.0028 209.364 40.0028C209.626 40.0028 209.864 39.9659 210.08 39.892C210.295 39.8151 210.481 39.7012 210.638 39.5504C210.795 39.3996 210.915 39.2134 210.998 38.9918L212.305 39.2273C212.2 39.612 212.012 39.949 211.742 40.2383C211.474 40.5245 211.137 40.7476 210.731 40.9077C210.327 41.0646 209.867 41.1431 209.35 41.1431ZM215.304 36.7898V41H213.924V33.9091H215.249V35.0632H215.337C215.5 34.6877 215.755 34.3861 216.103 34.1584C216.454 33.9306 216.895 33.8168 217.428 33.8168C217.911 33.8168 218.334 33.9183 218.697 34.1214C219.061 34.3215 219.342 34.62 219.542 35.017C219.742 35.4141 219.842 35.9049 219.842 36.4897V41H218.462V36.6559C218.462 36.1419 218.328 35.7403 218.06 35.451C217.793 35.1586 217.425 35.0124 216.957 35.0124C216.637 35.0124 216.352 35.0817 216.103 35.2202C215.857 35.3587 215.661 35.5618 215.517 35.8295C215.375 36.0942 215.304 36.4143 215.304 36.7898ZM224.348 41.1385C223.776 41.1385 223.265 40.9923 222.815 40.6999C222.369 40.4045 222.018 39.9844 221.763 39.4396C221.51 38.8918 221.384 38.2347 221.384 37.4684C221.384 36.7021 221.512 36.0465 221.767 35.5018C222.026 34.957 222.38 34.54 222.829 34.2507C223.279 33.9614 223.788 33.8168 224.357 33.8168C224.797 33.8168 225.151 33.8906 225.419 34.0384C225.69 34.183 225.899 34.3523 226.047 34.5462C226.198 34.7401 226.315 34.9109 226.398 35.0586H226.481V31.5455H227.861V41H226.513V39.8967H226.398C226.315 40.0475 226.195 40.2198 226.038 40.4137C225.884 40.6076 225.671 40.7769 225.401 40.9215C225.13 41.0662 224.779 41.1385 224.348 41.1385ZM224.653 39.9613C225.05 39.9613 225.385 39.8567 225.659 39.6474C225.936 39.435 226.145 39.1411 226.287 38.7656C226.432 38.3902 226.504 37.9531 226.504 37.4545C226.504 36.9621 226.433 36.5312 226.292 36.1619C226.15 35.7926 225.942 35.5049 225.668 35.2987C225.394 35.0924 225.056 34.9893 224.653 34.9893C224.237 34.9893 223.891 35.0971 223.614 35.3125C223.337 35.5279 223.128 35.8219 222.986 36.1942C222.848 36.5666 222.778 36.9867 222.778 37.4545C222.778 37.9285 222.849 38.3548 222.991 38.7333C223.132 39.1119 223.342 39.4119 223.619 39.6335C223.899 39.852 224.243 39.9613 224.653 39.9613Z" fill="white"/>
<rect x="18" y="63" width="227" height="1" fill="#EEEEEE"/>
</svg>
