<svg width="49" height="49" viewBox="0 0 49 49" fill="none" xmlns="http://www.w3.org/2000/svg">
<rect x="10.3525" width="40" height="40" rx="10" transform="rotate(15 10.3525 0)" fill="#FFAA94"/>
<g clip-path="url(#clip0_1_1764)">
<path d="M31.0921 28.8511C30.9777 29.2781 30.6984 29.6421 30.3156 29.8631C29.9328 30.0841 29.4778 30.144 29.0509 30.0296L19.3916 27.4414L15.3091 29.7985L18.76 16.9194C18.8744 16.4925 19.1538 16.1284 19.5366 15.9074C19.9194 15.6864 20.3743 15.6265 20.8013 15.7409L32.0704 18.7605C32.4974 18.8749 32.8614 19.1542 33.0824 19.537C33.3034 19.9198 33.3633 20.3748 33.2489 20.8017L31.0921 28.8511Z" stroke="white" stroke-width="1.66667" stroke-linecap="round" stroke-linejoin="round"/>
</g>
<defs>
<clipPath id="clip0_1_1764">
<rect width="20" height="20" fill="white" transform="translate(17.4236 12.2476) rotate(15)"/>
</clipPath>
</defs>
</svg>
