<svg width="40" height="40" viewBox="0 0 40 40" fill="none" xmlns="http://www.w3.org/2000/svg">
<rect width="40" height="40" rx="10" fill="#74C9A9"/>
<path d="M25.8326 12.5L14.1659 12.5C13.2455 12.5 12.4993 13.2462 12.4993 14.1667L12.4993 25.8333C12.4993 26.7538 13.2455 27.5 14.1659 27.5H25.8326C26.7531 27.5 27.4993 26.7538 27.4993 25.8333V14.1667C27.4993 13.2462 26.7531 12.5 25.8326 12.5Z" stroke="white" stroke-width="1.66667" stroke-linecap="round" stroke-linejoin="round"/>
<path d="M17.083 18.3333C17.7734 18.3333 18.333 17.7736 18.333 17.0833C18.333 16.3929 17.7734 15.8333 17.083 15.8333C16.3927 15.8333 15.833 16.3929 15.833 17.0833C15.833 17.7736 16.3927 18.3333 17.083 18.3333Z" stroke="white" stroke-width="1.66667" stroke-linecap="round" stroke-linejoin="round"/>
<path d="M27.4996 22.4999L23.3329 18.3333L14.1663 27.4999" stroke="white" stroke-width="1.66667" stroke-linecap="round" stroke-linejoin="round"/>
</svg>
