<svg width="24" height="24" viewBox="0 0 24 24" fill="none" xmlns="http://www.w3.org/2000/svg">
<path fill-rule="evenodd" clip-rule="evenodd" d="M2.83329 11.0001C2.83329 5.93747 6.93735 1.83341 12 1.83341C17.0626 1.83341 21.1666 5.93747 21.1666 11.0001C21.1666 16.0627 17.0626 20.1668 12 20.1668C6.93735 20.1668 2.83329 16.0627 2.83329 11.0001ZM12 0.166748C6.01688 0.166748 1.16663 5.017 1.16663 11.0001C1.16663 16.9832 6.01688 21.8334 12 21.8334C17.983 21.8334 22.8333 16.9832 22.8333 11.0001C22.8333 5.017 17.983 0.166748 12 0.166748ZM11.9301 14.6945L17.7196 8.69445L16.2803 7.30571L11.1148 12.6591L7.61365 9.93781L6.38627 11.5169L10.5968 14.7896L11.3062 15.341L11.9301 14.6945Z" fill="#2B9B5B"/>
</svg>
