<svg width="138" height="70" viewBox="0 0 138 70" fill="none" xmlns="http://www.w3.org/2000/svg">
<rect width="138" height="70" rx="10" fill="white"/>
<path d="M17.7102 53.4545V38.9091H18.642V53.4545H17.7102ZM20.625 43.4205C20.5644 42.8826 20.3144 42.4659 19.875 42.1705C19.4356 41.8712 18.8826 41.7216 18.2159 41.7216C17.7386 41.7216 17.3258 41.7973 16.9773 41.9489C16.6288 42.0966 16.358 42.3011 16.1648 42.5625C15.9754 42.8201 15.8807 43.1136 15.8807 43.4432C15.8807 43.7197 15.9451 43.9583 16.0739 44.1591C16.2064 44.3598 16.3788 44.5284 16.5909 44.6648C16.8068 44.7973 17.0379 44.9091 17.2841 45C17.5303 45.0871 17.767 45.1591 17.9943 45.2159L19.1307 45.5114C19.5019 45.6023 19.8826 45.7254 20.2727 45.8807C20.6629 46.036 21.0246 46.2405 21.358 46.4943C21.6913 46.7481 21.9602 47.0625 22.1648 47.4375C22.3731 47.8125 22.4773 48.2614 22.4773 48.7841C22.4773 49.4432 22.3068 50.0284 21.9659 50.5398C21.6288 51.0511 21.1383 51.4545 20.4943 51.75C19.8542 52.0455 19.0795 52.1932 18.1705 52.1932C17.2992 52.1932 16.5455 52.0549 15.9091 51.7784C15.2727 51.5019 14.7746 51.1098 14.4148 50.6023C14.0549 50.0909 13.8561 49.4848 13.8182 48.7841H15.5795C15.6136 49.2045 15.75 49.5549 15.9886 49.8352C16.2311 50.1117 16.5398 50.3182 16.9148 50.4545C17.2936 50.5871 17.7083 50.6534 18.1591 50.6534C18.6553 50.6534 19.0966 50.5758 19.483 50.4205C19.8731 50.2614 20.1799 50.0417 20.4034 49.7614C20.6269 49.4773 20.7386 49.1458 20.7386 48.767C20.7386 48.4223 20.6402 48.1402 20.4432 47.9205C20.25 47.7008 19.9867 47.5189 19.6534 47.375C19.3239 47.2311 18.9508 47.1042 18.5341 46.9943L17.1591 46.6193C16.2273 46.3655 15.4886 45.9924 14.9432 45.5C14.4015 45.0076 14.1307 44.3561 14.1307 43.5455C14.1307 42.875 14.3125 42.2898 14.6761 41.7898C15.0398 41.2898 15.5322 40.9015 16.1534 40.625C16.7746 40.3447 17.4754 40.2045 18.2557 40.2045C19.0436 40.2045 19.7386 40.3428 20.3409 40.6193C20.947 40.8958 21.4242 41.2765 21.7727 41.7614C22.1212 42.2424 22.303 42.7955 22.3182 43.4205H20.625ZM24.4162 52V50.7273L28.3537 46.6477C28.7741 46.2045 29.1207 45.8163 29.3935 45.483C29.67 45.1458 29.8764 44.8258 30.0128 44.5227C30.1491 44.2197 30.2173 43.8977 30.2173 43.5568C30.2173 43.1705 30.1264 42.8371 29.9446 42.5568C29.7628 42.2727 29.5147 42.0549 29.2003 41.9034C28.8859 41.7481 28.5317 41.6705 28.1378 41.6705C27.7211 41.6705 27.3575 41.7557 27.0469 41.9261C26.7363 42.0966 26.4976 42.3371 26.331 42.6477C26.1643 42.9583 26.081 43.322 26.081 43.7386H24.4048C24.4048 43.0303 24.5677 42.411 24.8935 41.8807C25.2192 41.3504 25.6662 40.9394 26.2344 40.6477C26.8026 40.3523 27.4484 40.2045 28.1719 40.2045C28.9029 40.2045 29.5469 40.3504 30.1037 40.642C30.6643 40.9299 31.1018 41.3239 31.4162 41.8239C31.7306 42.3201 31.8878 42.8807 31.8878 43.5057C31.8878 43.9375 31.8063 44.3598 31.6435 44.7727C31.4844 45.1856 31.206 45.6458 30.8082 46.1534C30.4105 46.6572 29.8575 47.2689 29.1491 47.9886L26.8366 50.4091V50.4943H32.0753V52H24.4162ZM33.7344 49.7273V48.3068L38.7628 40.3636H39.8821V42.4545H39.1719L35.5753 48.1477V48.2386H42.4673V49.7273H33.7344ZM39.2514 52V49.2955L39.2628 48.6477V40.3636H40.9276V52H39.2514ZM48.2884 52.1591C47.5762 52.1591 46.9361 52.0227 46.3679 51.75C45.8035 51.4735 45.3527 51.0947 45.0156 50.6136C44.6785 50.1326 44.4986 49.5833 44.4759 48.9659H46.1804C46.2221 49.4659 46.4437 49.8769 46.8452 50.1989C47.2467 50.5208 47.7277 50.6818 48.2884 50.6818C48.7353 50.6818 49.1312 50.5795 49.4759 50.375C49.8243 50.1667 50.0971 49.8807 50.294 49.517C50.4948 49.1534 50.5952 48.7386 50.5952 48.2727C50.5952 47.7992 50.4929 47.3769 50.2884 47.0057C50.0838 46.6345 49.8016 46.3428 49.4418 46.1307C49.0857 45.9186 48.6766 45.8106 48.2145 45.8068C47.8622 45.8068 47.508 45.8674 47.152 45.9886C46.7959 46.1098 46.508 46.2689 46.2884 46.4659L44.6804 46.2273L45.3338 40.3636H51.7315V41.8693H46.794L46.4247 45.125H46.4929C46.7202 44.9053 47.0213 44.7216 47.3963 44.5739C47.7751 44.4261 48.1804 44.3523 48.6122 44.3523C49.3205 44.3523 49.9512 44.5208 50.5043 44.858C51.0611 45.1951 51.4986 45.6553 51.8168 46.2386C52.1387 46.8182 52.2978 47.4848 52.294 48.2386C52.2978 48.9924 52.1274 49.6648 51.7827 50.2557C51.4418 50.8466 50.9683 51.3125 50.3622 51.6534C49.7599 51.9905 49.0687 52.1591 48.2884 52.1591ZM55.0895 52.108C54.7789 52.108 54.5118 51.9981 54.2884 51.7784C54.0649 51.5549 53.9531 51.286 53.9531 50.9716C53.9531 50.661 54.0649 50.3958 54.2884 50.1761C54.5118 49.9527 54.7789 49.8409 55.0895 49.8409C55.4001 49.8409 55.6671 49.9527 55.8906 50.1761C56.1141 50.3958 56.2259 50.661 56.2259 50.9716C56.2259 51.1799 56.1728 51.3712 56.0668 51.5455C55.9645 51.7159 55.8281 51.8523 55.6577 51.9545C55.4872 52.0568 55.2978 52.108 55.0895 52.108ZM62.108 52.1932C61.2102 52.1894 60.4432 51.9527 59.8068 51.483C59.1705 51.0133 58.6837 50.3295 58.3466 49.4318C58.0095 48.5341 57.8409 47.4527 57.8409 46.1875C57.8409 44.9261 58.0095 43.8485 58.3466 42.9545C58.6875 42.0606 59.1761 41.3788 59.8125 40.9091C60.4527 40.4394 61.2178 40.2045 62.108 40.2045C62.9981 40.2045 63.7614 40.4413 64.3977 40.9148C65.0341 41.3845 65.5208 42.0663 65.858 42.9602C66.1989 43.8504 66.3693 44.9261 66.3693 46.1875C66.3693 47.4564 66.2008 48.5398 65.8636 49.4375C65.5265 50.3314 65.0398 51.0152 64.4034 51.4886C63.767 51.9583 63.0019 52.1932 62.108 52.1932ZM62.108 50.6761C62.8958 50.6761 63.5114 50.2917 63.9545 49.5227C64.4015 48.7538 64.625 47.642 64.625 46.1875C64.625 45.2216 64.5227 44.4053 64.3182 43.7386C64.1174 43.0682 63.8277 42.5606 63.4489 42.2159C63.0739 41.8674 62.6269 41.6932 62.108 41.6932C61.3239 41.6932 60.7083 42.0795 60.2614 42.8523C59.8144 43.625 59.589 44.7367 59.5852 46.1875C59.5852 47.1572 59.6856 47.9773 59.8864 48.6477C60.0909 49.3144 60.3807 49.8201 60.7557 50.1648C61.1307 50.5057 61.5814 50.6761 62.108 50.6761ZM72.4361 52.1932C71.5384 52.1894 70.7713 51.9527 70.1349 51.483C69.4986 51.0133 69.0118 50.3295 68.6747 49.4318C68.3376 48.5341 68.169 47.4527 68.169 46.1875C68.169 44.9261 68.3376 43.8485 68.6747 42.9545C69.0156 42.0606 69.5043 41.3788 70.1406 40.9091C70.7808 40.4394 71.5459 40.2045 72.4361 40.2045C73.3262 40.2045 74.0895 40.4413 74.7259 40.9148C75.3622 41.3845 75.849 42.0663 76.1861 42.9602C76.527 43.8504 76.6974 44.9261 76.6974 46.1875C76.6974 47.4564 76.5289 48.5398 76.1918 49.4375C75.8546 50.3314 75.3679 51.0152 74.7315 51.4886C74.0952 51.9583 73.33 52.1932 72.4361 52.1932ZM72.4361 50.6761C73.224 50.6761 73.8395 50.2917 74.2827 49.5227C74.7296 48.7538 74.9531 47.642 74.9531 46.1875C74.9531 45.2216 74.8509 44.4053 74.6463 43.7386C74.4455 43.0682 74.1558 42.5606 73.777 42.2159C73.402 41.8674 72.955 41.6932 72.4361 41.6932C71.652 41.6932 71.0365 42.0795 70.5895 42.8523C70.1425 43.625 69.9171 44.7367 69.9134 46.1875C69.9134 47.1572 70.0137 47.9773 70.2145 48.6477C70.419 49.3144 70.7088 49.8201 71.0838 50.1648C71.4588 50.5057 71.9096 50.6761 72.4361 50.6761Z" fill="black"/>
<path d="M12.5795 17.2102V16.2727H19.125V17.2102H16.3807V25H15.3239V17.2102H12.5795ZM22.3295 25.1364C21.7386 25.1364 21.2202 24.9957 20.7741 24.7145C20.331 24.4332 19.9844 24.0398 19.7344 23.5341C19.4872 23.0284 19.3636 22.4375 19.3636 21.7614C19.3636 21.0795 19.4872 20.4844 19.7344 19.9759C19.9844 19.4673 20.331 19.0724 20.7741 18.7912C21.2202 18.5099 21.7386 18.3693 22.3295 18.3693C22.9205 18.3693 23.4375 18.5099 23.8807 18.7912C24.3267 19.0724 24.6733 19.4673 24.9205 19.9759C25.1705 20.4844 25.2955 21.0795 25.2955 21.7614C25.2955 22.4375 25.1705 23.0284 24.9205 23.5341C24.6733 24.0398 24.3267 24.4332 23.8807 24.7145C23.4375 24.9957 22.9205 25.1364 22.3295 25.1364ZM22.3295 24.233C22.7784 24.233 23.1477 24.1179 23.4375 23.8878C23.7273 23.6577 23.9418 23.3551 24.081 22.9801C24.2202 22.6051 24.2898 22.1989 24.2898 21.7614C24.2898 21.3239 24.2202 20.9162 24.081 20.5384C23.9418 20.1605 23.7273 19.8551 23.4375 19.6222C23.1477 19.3892 22.7784 19.2727 22.3295 19.2727C21.8807 19.2727 21.5114 19.3892 21.2216 19.6222C20.9318 19.8551 20.7173 20.1605 20.5781 20.5384C20.4389 20.9162 20.3693 21.3239 20.3693 21.7614C20.3693 22.1989 20.4389 22.6051 20.5781 22.9801C20.7173 23.3551 20.9318 23.6577 21.2216 23.8878C21.5114 24.1179 21.8807 24.233 22.3295 24.233ZM29.6772 18.4545V19.3068H26.2852V18.4545H29.6772ZM27.2738 16.8864H28.2795V23.125C28.2795 23.4091 28.3207 23.6222 28.4031 23.7642C28.4883 23.9034 28.5962 23.9972 28.7269 24.0455C28.8604 24.0909 29.0011 24.1136 29.1488 24.1136C29.2596 24.1136 29.3505 24.108 29.4215 24.0966C29.4925 24.0824 29.5494 24.071 29.592 24.0625L29.7965 24.9659C29.7283 24.9915 29.6332 25.017 29.511 25.0426C29.3888 25.071 29.234 25.0852 29.0465 25.0852C28.7624 25.0852 28.484 25.0241 28.2113 24.902C27.9414 24.7798 27.717 24.5938 27.538 24.3438C27.3619 24.0938 27.2738 23.7784 27.2738 23.3977V16.8864ZM33.1161 25.1534C32.7013 25.1534 32.3249 25.0753 31.9869 24.919C31.6488 24.7599 31.3803 24.5312 31.1815 24.233C30.9826 23.9318 30.8832 23.5682 30.8832 23.142C30.8832 22.767 30.957 22.4631 31.1048 22.2301C31.2525 21.9943 31.4499 21.8097 31.6971 21.6761C31.9442 21.5426 32.217 21.4432 32.5153 21.3778C32.8164 21.3097 33.119 21.2557 33.4229 21.2159C33.8207 21.1648 34.1431 21.1264 34.3903 21.1009C34.6403 21.0724 34.8221 21.0256 34.9357 20.9602C35.0522 20.8949 35.1104 20.7812 35.1104 20.6193V20.5852C35.1104 20.1648 34.9954 19.8381 34.7653 19.6051C34.538 19.3722 34.1928 19.2557 33.7298 19.2557C33.2496 19.2557 32.8732 19.3608 32.6005 19.571C32.3278 19.7812 32.136 20.0057 32.0252 20.2443L31.0707 19.9034C31.2411 19.5057 31.4684 19.196 31.7525 18.9744C32.0394 18.75 32.3519 18.5937 32.69 18.5057C33.0309 18.4148 33.3661 18.3693 33.6957 18.3693C33.9059 18.3693 34.1474 18.3949 34.4201 18.446C34.6957 18.4943 34.9613 18.5952 35.217 18.7486C35.4755 18.902 35.69 19.1335 35.8604 19.4432C36.0309 19.7528 36.1161 20.1676 36.1161 20.6875V25H35.1104V24.1136H35.0593C34.9911 24.2557 34.8775 24.4077 34.7184 24.5696C34.5593 24.7315 34.3477 24.8693 34.0835 24.983C33.8192 25.0966 33.4968 25.1534 33.1161 25.1534ZM33.2695 24.25C33.6673 24.25 34.0025 24.1719 34.2752 24.0156C34.5508 23.8594 34.7582 23.6577 34.8974 23.4105C35.0394 23.1634 35.1104 22.9034 35.1104 22.6307V21.7102C35.0678 21.7614 34.9741 21.8082 34.8292 21.8509C34.6871 21.8906 34.5224 21.9261 34.3349 21.9574C34.1502 21.9858 33.9698 22.0114 33.7937 22.0341C33.6204 22.054 33.4798 22.071 33.3718 22.0852C33.1104 22.1193 32.8661 22.1747 32.6388 22.2514C32.4144 22.3253 32.2326 22.4375 32.0934 22.5881C31.957 22.7358 31.8888 22.9375 31.8888 23.1932C31.8888 23.5426 32.0181 23.8068 32.2766 23.9858C32.538 24.1619 32.869 24.25 33.2695 24.25ZM38.9574 16.2727V25H37.9517V16.2727H38.9574ZM45.3675 16.2727V25H44.3107V16.2727H45.3675ZM48.3558 21.0625V25H47.3501V18.4545H48.3217V19.4773H48.407C48.5604 19.1449 48.7933 18.8778 49.1058 18.6761C49.4183 18.4716 49.8217 18.3693 50.3161 18.3693C50.7592 18.3693 51.147 18.4602 51.4794 18.642C51.8118 18.821 52.0703 19.0938 52.255 19.4602C52.4396 19.8239 52.532 20.2841 52.532 20.8409V25H51.5263V20.9091C51.5263 20.3949 51.3928 19.9943 51.1257 19.7074C50.8587 19.4176 50.4922 19.2727 50.0263 19.2727C49.7053 19.2727 49.4183 19.3423 49.1655 19.4815C48.9155 19.6207 48.718 19.8239 48.5732 20.0909C48.4283 20.358 48.3558 20.6818 48.3558 21.0625ZM57.0288 25.1364C56.4151 25.1364 55.8867 24.9915 55.4435 24.7017C55.0004 24.4119 54.6594 24.0128 54.4208 23.5043C54.1822 22.9957 54.0629 22.4148 54.0629 21.7614C54.0629 21.0966 54.185 20.5099 54.4293 20.0014C54.6765 19.4901 55.0202 19.0909 55.4606 18.804C55.9038 18.5142 56.4208 18.3693 57.0117 18.3693C57.4719 18.3693 57.8867 18.4545 58.256 18.625C58.6254 18.7955 58.9279 19.0341 59.1637 19.3409C59.3995 19.6477 59.5458 20.0057 59.6026 20.4148H58.5969C58.5202 20.1165 58.3498 19.8523 58.0856 19.6222C57.8242 19.3892 57.4719 19.2727 57.0288 19.2727C56.6367 19.2727 56.293 19.375 55.9975 19.5795C55.7049 19.7812 55.4762 20.0668 55.3114 20.4361C55.1495 20.8026 55.0685 21.233 55.0685 21.7273C55.0685 22.233 55.1481 22.6733 55.3072 23.0483C55.4691 23.4233 55.6964 23.7145 55.989 23.9219C56.2844 24.1293 56.631 24.233 57.0288 24.233C57.2901 24.233 57.5273 24.1875 57.7404 24.0966C57.9535 24.0057 58.1339 23.875 58.2816 23.7045C58.4293 23.5341 58.5344 23.3295 58.5969 23.0909H59.6026C59.5458 23.4773 59.4052 23.8253 59.1808 24.1349C58.9592 24.4418 58.6651 24.6861 58.2987 24.8679C57.935 25.0469 57.5117 25.1364 57.0288 25.1364ZM63.7319 25.1364C63.141 25.1364 62.6225 24.9957 62.1765 24.7145C61.7333 24.4332 61.3867 24.0398 61.1367 23.5341C60.8896 23.0284 60.766 22.4375 60.766 21.7614C60.766 21.0795 60.8896 20.4844 61.1367 19.9759C61.3867 19.4673 61.7333 19.0724 62.1765 18.7912C62.6225 18.5099 63.141 18.3693 63.7319 18.3693C64.3228 18.3693 64.8398 18.5099 65.283 18.7912C65.729 19.0724 66.0756 19.4673 66.3228 19.9759C66.5728 20.4844 66.6978 21.0795 66.6978 21.7614C66.6978 22.4375 66.5728 23.0284 66.3228 23.5341C66.0756 24.0398 65.729 24.4332 65.283 24.7145C64.8398 24.9957 64.3228 25.1364 63.7319 25.1364ZM63.7319 24.233C64.1808 24.233 64.5501 24.1179 64.8398 23.8878C65.1296 23.6577 65.3441 23.3551 65.4833 22.9801C65.6225 22.6051 65.6921 22.1989 65.6921 21.7614C65.6921 21.3239 65.6225 20.9162 65.4833 20.5384C65.3441 20.1605 65.1296 19.8551 64.8398 19.6222C64.5501 19.3892 64.1808 19.2727 63.7319 19.2727C63.283 19.2727 62.9137 19.3892 62.6239 19.6222C62.3342 19.8551 62.1197 20.1605 61.9805 20.5384C61.8413 20.9162 61.7717 21.3239 61.7717 21.7614C61.7717 22.1989 61.8413 22.6051 61.9805 22.9801C62.1197 23.3551 62.3342 23.6577 62.6239 23.8878C62.9137 24.1179 63.283 24.233 63.7319 24.233ZM68.233 25V18.4545H69.2045V19.4773H69.2898C69.4261 19.1278 69.6463 18.8565 69.9503 18.6634C70.2543 18.4673 70.6193 18.3693 71.0455 18.3693C71.4773 18.3693 71.8366 18.4673 72.1236 18.6634C72.4134 18.8565 72.6392 19.1278 72.8011 19.4773H72.8693C73.0369 19.1392 73.2884 18.8707 73.6236 18.6719C73.9588 18.4702 74.3608 18.3693 74.8295 18.3693C75.4148 18.3693 75.8935 18.5526 76.2656 18.919C76.6378 19.2827 76.8239 19.8494 76.8239 20.6193V25H75.8182V20.6193C75.8182 20.1364 75.6861 19.7912 75.4219 19.5838C75.1577 19.3764 74.8466 19.2727 74.4886 19.2727C74.0284 19.2727 73.6719 19.4119 73.419 19.6903C73.1662 19.9659 73.0398 20.3153 73.0398 20.7386V25H72.017V20.517C72.017 20.1449 71.8963 19.8452 71.6548 19.6179C71.4134 19.3878 71.1023 19.2727 70.7216 19.2727C70.4602 19.2727 70.2159 19.3423 69.9886 19.4815C69.7642 19.6207 69.5824 19.8139 69.4432 20.0611C69.3068 20.3054 69.2386 20.5881 69.2386 20.9091V25H68.233ZM81.407 25.1364C80.7763 25.1364 80.2322 24.9972 79.7749 24.7188C79.3203 24.4375 78.9695 24.0455 78.7223 23.5426C78.478 23.0369 78.3558 22.4489 78.3558 21.7784C78.3558 21.108 78.478 20.517 78.7223 20.0057C78.9695 19.4915 79.3132 19.0909 79.7536 18.804C80.1967 18.5142 80.7138 18.3693 81.3047 18.3693C81.6456 18.3693 81.9822 18.4261 82.3146 18.5398C82.647 18.6534 82.9496 18.8381 83.2223 19.0938C83.495 19.3466 83.7124 19.6818 83.8743 20.0994C84.0362 20.517 84.1172 21.0312 84.1172 21.642V22.0682H79.0717V21.1989H83.0945C83.0945 20.8295 83.0206 20.5 82.8729 20.2102C82.728 19.9205 82.5206 19.6918 82.2507 19.5241C81.9837 19.3565 81.6683 19.2727 81.3047 19.2727C80.9041 19.2727 80.5575 19.3722 80.2649 19.571C79.9751 19.767 79.7521 20.0227 79.5959 20.3381C79.4396 20.6534 79.3615 20.9915 79.3615 21.3523V21.9318C79.3615 22.4261 79.4467 22.8452 79.6172 23.1889C79.7905 23.5298 80.0305 23.7898 80.3374 23.9688C80.6442 24.1449 81.0007 24.233 81.407 24.233C81.6712 24.233 81.9098 24.196 82.1229 24.1222C82.3388 24.0455 82.5249 23.9318 82.6811 23.7812C82.8374 23.6278 82.9581 23.4375 83.0433 23.2102L84.0149 23.483C83.9126 23.8125 83.7408 24.1023 83.4993 24.3523C83.2578 24.5994 82.9595 24.7926 82.6044 24.9318C82.2493 25.0682 81.8501 25.1364 81.407 25.1364Z" fill="#A9A7B6"/>
<path d="M121 52.6668V44.3335" stroke="#52BD94" stroke-width="1.66667" stroke-linecap="round" stroke-linejoin="round"/>
<path d="M116 52.6668V39.3335" stroke="#52BD94" stroke-width="1.66667" stroke-linecap="round" stroke-linejoin="round"/>
<path d="M111 52.6665V47.6665" stroke="#52BD94" stroke-width="1.66667" stroke-linecap="round" stroke-linejoin="round"/>
</svg>
